<svg width="35" height="30" viewBox="0 0 35 30" fill="none" xmlns="http://www.w3.org/2000/svg">
<path d="M31.5968 1.52118H22.7315V4.86959H31.6318L31.5968 1.52118ZM29.7258 24.5563C29.0533 25.1615 28.2591 25.4685 27.4527 25.435C26.9189 25.5105 26.3793 25.4357 25.8678 25.215C25.3564 24.9943 24.8839 24.6327 24.4801 24.1526C23.7335 23.0029 23.3448 21.5044 23.396 19.973H34.9715C35.055 18.3785 34.9547 16.776 34.6743 15.2235C34.403 13.7465 33.9284 12.3525 33.2754 11.1152C32.6182 9.915 31.7693 8.9326 30.7924 8.24174C29.7056 7.51398 28.5069 7.14768 27.2953 7.1731C26.1558 7.16177 25.0261 7.46053 23.973 8.05176C23.0087 8.60387 22.1349 9.41114 21.4026 10.4265C20.6724 11.4622 20.1069 12.6909 19.7414 14.0361C19.3492 15.4884 19.1537 17.0251 19.1644 18.5719C19.1464 20.1407 19.3359 21.7011 19.7239 23.179C20.0535 24.5172 20.5767 25.7525 21.2627 26.8123C21.9724 27.8528 22.8448 28.6643 23.8156 29.1871C24.8982 29.7472 26.0496 30.0213 27.2079 29.9945C28.833 30.0633 30.4375 29.4855 31.8241 28.3322C33.2246 26.9806 34.2328 25.0064 34.6743 22.7515H30.8099C30.603 23.4975 30.2224 24.1312 29.7258 24.5563ZM23.7282 14.7723C23.8643 14.1802 24.0902 13.6335 24.3913 13.1672C24.6925 12.7009 25.0623 12.3255 25.4768 12.0651C26.0257 11.7295 26.6236 11.5671 27.2253 11.5901C27.6601 11.5397 28.0977 11.6176 28.5082 11.8185C28.9186 12.0193 29.2923 12.3384 29.6034 12.7538C30.1975 13.7415 30.5788 14.9333 30.705 16.1972H23.4484C23.4767 15.7146 23.5412 15.2372 23.6408 14.7723H23.7282ZM14.4782 13.6324C15.3682 13.1291 16.1415 12.3086 16.7164 11.2577C17.2449 10.1416 17.5074 8.83147 17.4683 7.50557C17.5026 6.29643 17.3289 5.09308 16.9612 3.99093C16.6522 3.03608 16.1563 2.21467 15.5274 1.61617C14.8605 0.993924 14.1033 0.572856 13.3067 0.381301C12.3639 0.112748 11.4022 -0.0146663 10.439 0.00134021H0V29.8758H10.6663C11.6397 29.8767 12.6093 29.7091 13.5515 29.3771C14.4445 29.0633 15.2906 28.541 16.0519 27.8335C16.7894 27.1394 17.3899 26.2097 17.8005 25.1263C18.255 23.9146 18.4775 22.5671 18.4475 21.2079C18.4806 19.5236 18.1327 17.8659 17.4508 16.4584C16.7174 15.0429 15.6297 14.0383 14.3908 13.6324H14.4782ZM4.84356 5.10706H9.37237C9.78844 5.10637 10.2038 5.15404 10.6139 5.24955C10.9915 5.32555 11.3541 5.50317 11.6805 5.772C11.9958 6.01425 12.2514 6.37781 12.4149 6.81689C12.6174 7.34341 12.7139 7.93325 12.6947 8.52671C12.7272 9.03785 12.6697 9.55217 12.5268 10.0271C12.3839 10.502 12.1597 10.9238 11.8728 11.2577C11.2471 11.8419 10.4982 12.1337 9.73957 12.0888H4.84356V5.10706ZM13.3067 22.7752C13.127 23.2592 12.8554 23.6692 12.5198 23.9626C12.1706 24.2576 11.7859 24.4666 11.3832 24.5801C10.9357 24.7161 10.4779 24.7799 10.0193 24.77H4.77361V16.5771H10.0193C10.9195 16.5236 11.8085 16.865 12.5548 17.5508C12.8919 17.9617 13.1531 18.4746 13.3171 19.0481C13.4812 19.6216 13.5435 20.2394 13.499 20.8517C13.5463 21.5045 13.4804 22.1632 13.3067 22.7752Z" fill="#FFF3F3"/>
</svg>
