<svg width="30" height="30" viewBox="0 0 30 30" fill="none" xmlns="http://www.w3.org/2000/svg">
<path d="M15.0008 0C6.71284 0 2.46764e-06 6.88245 2.46764e-06 15.3798C-0.00180371 18.6082 0.987949 21.7553 2.82886 24.3746C4.66977 26.9938 7.26836 28.9523 10.256 29.9721C11.0061 30.1059 11.2881 29.6445 11.2881 29.24C11.2881 28.8755 11.2686 27.6652 11.2686 26.3763C7.50038 27.0884 6.52533 25.4351 6.22531 24.5692C6.0558 24.1263 5.32527 22.7621 4.68774 22.396C4.16271 22.1084 3.41267 21.3964 4.66824 21.3779C5.85029 21.3579 6.69334 22.4929 6.97535 22.9543C8.32542 25.2797 10.481 24.6261 11.3436 24.2232C11.4756 23.2235 11.8686 22.5514 12.3006 22.1669C8.96295 21.7824 5.47528 20.4551 5.47528 14.5723C5.47528 12.899 6.0558 11.5164 7.01285 10.4383C6.86284 10.0538 6.33782 8.47734 7.16286 6.36262C7.16286 6.36262 8.41842 5.95967 11.2881 7.94058C12.5092 7.59309 13.7709 7.4182 15.0383 7.42074C16.3133 7.42074 17.5884 7.593 18.7884 7.93904C21.6581 5.93967 22.9136 6.36415 22.9136 6.36415C23.7387 8.47887 23.2137 10.0553 23.0637 10.4398C24.0192 11.5164 24.6012 12.8806 24.6012 14.5723C24.6012 20.4751 21.0956 21.7824 17.7564 22.1669C18.3009 22.6467 18.7704 23.5695 18.7704 25.0121C18.7704 27.0684 18.7509 28.7217 18.7509 29.2416C18.7509 29.6445 19.033 30.1244 19.783 29.9706C22.7604 28.9396 25.3475 26.9773 27.1803 24.3599C29.0131 21.7425 29.9993 18.6018 30 15.3798C30 6.88245 23.2872 0 14.9993 0H15.0008Z" fill="black"/>
</svg>
